{
    "asset" : {
        "generator" : "Khronos glTF Blender I/O v1.2.75",
        "version" : "2.0"
    },
    "scene" : 0,
    "scenes" : [
        {
            "name" : "Scene",
            "nodes" : [
                0
            ]
        }
    ],
    "nodes" : [
        {
            "mesh" : 0,
            "name" : "Cloud_1",
            "scale" : [
                0.774948239326477,
                0.774948239326477,
                0.774948239326477
            ]
        }
    ],
    "meshes" : [
        {
            "name" : "Icosphere.044",
            "primitives" : [
                {
                    "attributes" : {
                        "POSITION" : 0,
                        "NORMAL" : 1
                    },
                    "indices" : 2
                }
            ]
        }
    ],
    "accessors" : [
        {
            "bufferView" : 0,
            "componentType" : 5126,
            "count" : 273,
            "max" : [
                2.364835739135742,
                1.3206504583358765,
                1.2811146974563599
            ],
            "min" : [
                -2.3554747104644775,
                -1.245394229888916,
                -1.2811148166656494
            ],
            "type" : "VEC3"
        },
        {
            "bufferView" : 1,
            "componentType" : 5126,
            "count" : 273,
            "type" : "VEC3"
        },
        {
            "bufferView" : 2,
            "componentType" : 5123,
            "count" : 273,
            "type" : "SCALAR"
        }
    ],
    "bufferViews" : [
        {
            "buffer" : 0,
            "byteLength" : 3276,
            "byteOffset" : 0
        },
        {
            "buffer" : 0,
            "byteLength" : 3276,
            "byteOffset" : 3276
        },
        {
            "buffer" : 0,
            "byteLength" : 546,
            "byteOffset" : 6552
        }
    ],
    "buffers" : [
        {
            "byteLength" : 7100,
            "uri" : "data:application/octet-stream;base64,"
        }
    ]
}
